<?xml version="1.0" encoding="utf-8"?>
<svg xmlns="http://www.w3.org/2000/svg" fill="none" height="40" viewBox="0 0 200 40" width="200">
<g id="Logo">
<g id="Path">
<path d="M162.794 13.494C163.754 13.494 164.593 12.6506 164.593 11.6867C164.593 10.6024 163.754 9.87952 162.794 9.87952C161.834 9.87952 160.995 10.7229 160.995 11.6867C160.995 12.6506 161.714 13.494 162.794 13.494Z" fill="#E9531E"/>
<path d="M158.836 14.6988C159.555 14.0964 159.795 13.012 159.195 12.1687C158.596 11.3253 157.516 11.2048 156.557 11.8072C155.837 12.4097 155.597 13.494 156.197 14.3373C156.796 15.0602 157.996 15.3012 158.836 14.6988Z" fill="#E9531E"/>
<path d="M155.237 15.7831C156.197 16.1446 156.796 17.1084 156.437 18.0723C156.077 19.0361 155.117 19.518 154.158 19.2771C153.198 18.9156 152.598 17.9518 152.958 16.9879C153.198 16.0241 154.278 15.4217 155.237 15.7831Z" fill="#E9531E"/>
<path d="M166.632 14.6988C165.913 14.0964 165.673 13.012 166.273 12.1687C166.872 11.3253 167.952 11.2048 168.911 11.8072C169.631 12.4097 169.871 13.6144 169.271 14.3373C168.672 15.0602 167.352 15.3012 166.632 14.6988Z" fill="#E9531E"/>
<path d="M170.231 15.7831C169.271 16.1446 168.672 17.1084 169.031 18.0723C169.391 19.0361 170.351 19.518 171.31 19.2771C172.27 18.9156 172.87 17.9518 172.51 16.9879C172.27 16.0241 171.19 15.4217 170.231 15.7831Z" fill="#E9531E"/>
<path d="M159.675 30.4819C160.875 30.4819 161.834 31.4458 161.834 32.6506C161.834 33.8554 160.875 34.8192 159.675 34.8192C158.476 34.8192 157.516 33.8554 157.516 32.6506C157.516 31.4458 158.476 30.4819 159.675 30.4819Z" fill="#E9531E"/>
<path d="M155.597 30.8434C155.597 29.6385 154.637 28.6747 153.438 28.6747C152.238 28.6747 151.279 29.6385 151.279 30.8434C151.279 32.0482 152.238 33.012 153.438 33.012C154.637 33.012 155.597 32.0482 155.597 30.8434Z" fill="#E9531E"/>
<path d="M146.841 27.4699C147.92 27.4699 148.88 28.4337 148.88 29.5181C148.88 30.7229 148.04 31.5663 146.841 31.5663C145.761 31.5663 144.801 30.6024 144.801 29.5181C144.801 28.4337 145.761 27.4699 146.841 27.4699Z" fill="#E9531E"/>
<path d="M136.645 24.5783C136.645 23.8554 136.045 23.1325 135.205 23.1325C134.366 23.1325 133.766 23.7349 133.766 24.5783C133.766 25.3012 134.366 26.0241 135.205 26.0241C136.045 25.9036 136.645 25.3012 136.645 24.5783Z" fill="#E9531E"/>
<path d="M140.363 25.3012C141.323 25.3012 142.163 26.1446 142.163 27.1084C142.163 28.0723 141.323 28.7952 140.363 28.9156C139.404 28.9156 138.564 28.0723 138.564 27.1084C138.564 26.1446 139.404 25.3012 140.363 25.3012Z" fill="#E9531E"/>
<path d="M164.593 28.1927C164.593 27.2289 163.754 26.3855 162.794 26.3855C161.714 26.3855 160.995 27.2289 160.995 28.1927C160.995 29.1566 161.834 30 162.794 30C163.754 30.1205 164.593 29.2771 164.593 28.1927Z" fill="#E9531E"/>
<path d="M158.836 25.1807C159.555 25.7831 159.795 26.8674 159.195 27.7108C158.596 28.5542 157.516 28.6747 156.557 28.0723C155.837 27.4699 155.597 26.3855 156.197 25.5422C156.796 24.8193 157.996 24.5783 158.836 25.1807Z" fill="#E9531E"/>
<path d="M155.237 24.0964C156.197 23.7349 156.796 22.7711 156.437 21.8072C156.077 20.8434 155.117 20.3614 154.158 20.6024C153.198 20.9638 152.598 21.9277 152.958 22.8915C153.198 23.8554 154.278 24.4578 155.237 24.0964Z" fill="#E9531E"/>
<path d="M165.793 30.4819C164.593 30.4819 163.634 31.4458 163.634 32.6506C163.634 33.8554 164.593 34.8192 165.793 34.8192C166.992 34.8192 167.952 33.8554 167.952 32.6506C167.952 31.4458 166.992 30.4819 165.793 30.4819Z" fill="#E9531E"/>
<path d="M169.871 30.8434C169.871 29.6385 170.831 28.6747 172.03 28.6747C173.23 28.6747 174.189 29.6385 174.189 30.8434C174.189 32.0482 173.23 33.012 172.03 33.012C170.831 33.012 169.871 32.0482 169.871 30.8434Z" fill="#E9531E"/>
<path d="M178.627 27.4699C177.548 27.4699 176.588 28.4337 176.588 29.5181C176.588 30.7229 177.548 31.5663 178.627 31.5663C179.707 31.5663 180.667 30.6024 180.667 29.5181C180.667 28.4337 179.707 27.4699 178.627 27.4699Z" fill="#E9531E"/>
<path d="M188.823 24.5783C188.823 23.8554 189.423 23.1325 190.263 23.1325C191.102 23.1325 191.702 23.7349 191.702 24.5783C191.702 25.3012 191.102 26.0241 190.263 26.0241C189.423 25.9036 188.823 25.3012 188.823 24.5783Z" fill="#E9531E"/>
<path d="M185.105 25.3012C184.145 25.3012 183.305 26.1446 183.305 27.1084C183.305 28.0723 184.145 28.7952 185.105 28.9156C186.064 28.9156 186.904 28.0723 186.904 27.1084C186.904 26.1446 186.064 25.3012 185.105 25.3012Z" fill="#E9531E"/>
<path d="M166.273 27.7108C165.673 26.8674 165.913 25.7831 166.632 25.1807C167.472 24.5783 168.672 24.8193 169.271 25.5422C169.871 26.3855 169.631 27.4699 168.911 28.0723C167.952 28.6747 166.872 28.5542 166.273 27.7108Z" fill="#E9531E"/>
<path d="M169.031 21.8072C168.672 22.7711 169.271 23.7349 170.231 24.0964C171.19 24.4578 172.27 23.8554 172.51 22.8915C172.87 21.9277 172.27 20.9638 171.31 20.6024C170.351 20.3614 169.391 20.8434 169.031 21.8072Z" fill="#E9531E"/>
</g>
<g id="Path_2">
<path d="M162.794 4.33736C163.993 4.33736 164.953 3.37351 164.953 2.1687C164.953 0.963877 163.993 0 162.794 0C161.594 0 160.635 0.963877 160.635 2.1687C160.635 3.37351 161.594 4.33736 162.794 4.33736Z" fill="#054F9D"/>
<path d="M161.834 7.3494C161.834 8.55422 160.875 9.51806 159.675 9.51806C158.476 9.51806 157.516 8.55422 157.516 7.3494C157.516 6.14458 158.476 5.18074 159.675 5.18074C160.875 5.18074 161.834 6.14458 161.834 7.3494Z" fill="#054F9D"/>
<path d="M141.923 9.39761C143.002 9.39761 143.962 8.43374 143.962 7.3494C143.962 6.26506 143.002 5.30119 141.923 5.30119C140.843 5.30119 139.883 6.26506 139.883 7.3494C139.883 8.43374 140.843 9.39761 141.923 9.39761Z" fill="#054F9D"/>
<path d="M135.685 12.0482C136.645 12.0482 137.364 11.3253 137.364 10.3615C137.364 9.39759 136.645 8.67471 135.685 8.67471C134.726 8.67471 134.006 9.39759 134.006 10.3615C134.006 11.3253 134.726 12.0482 135.685 12.0482Z" fill="#054F9D"/>
<path d="M151.639 20C151.639 21.2048 150.679 22.1687 149.479 22.1687C148.28 22.1687 147.32 21.2048 147.32 20C147.32 18.7952 148.28 17.8313 149.479 17.8313C150.679 17.8313 151.639 18.7952 151.639 20Z" fill="#054F9D"/>
<path d="M155.717 5.06026C156.916 5.06026 157.876 4.09638 157.876 2.89156C157.876 1.68674 156.916 0.722901 155.717 0.722901C154.517 0.722901 153.558 1.68674 153.558 2.89156C153.558 4.09638 154.517 5.06026 155.717 5.06026Z" fill="#054F9D"/>
<path d="M150.919 4.69879C150.919 5.90361 149.959 6.86748 148.76 6.86748C147.56 6.86748 146.601 5.90361 146.601 4.69879C146.601 3.49397 147.56 2.53013 148.76 2.53013C149.959 2.65061 150.919 3.61445 150.919 4.69879Z" fill="#054F9D"/>
<path d="M153.438 11.2048C154.637 11.2048 155.597 10.241 155.597 9.03614C155.597 7.83132 154.637 6.86748 153.438 6.86748C152.238 6.86748 151.279 7.83132 151.279 9.03614C151.279 10.241 152.238 11.2048 153.438 11.2048Z" fill="#054F9D"/>
<path d="M152.118 12.7711C153.078 13.494 153.198 14.9398 152.478 15.7831C151.759 16.747 150.319 16.8675 149.36 16.1446C148.4 15.4217 148.28 13.9759 149 13.1325C149.719 12.1687 151.159 12.0482 152.118 12.7711Z" fill="#054F9D"/>
<path d="M146.841 12.4097C147.92 12.4097 148.88 11.4458 148.88 10.3614C148.88 9.15663 148.04 8.31324 146.841 8.31324C145.761 8.31324 144.801 9.27711 144.801 10.3614C144.801 11.4458 145.761 12.4097 146.841 12.4097Z" fill="#054F9D"/>
<path d="M146.841 15.3012C146.841 16.3856 146.001 17.2289 144.921 17.2289C143.842 17.2289 143.002 16.3856 143.002 15.3012C143.002 14.2169 143.842 13.3735 144.921 13.3735C146.001 13.3735 146.841 14.2169 146.841 15.3012Z" fill="#054F9D"/>
<path d="M144.082 21.8072C145.041 21.8072 145.881 20.9639 145.881 20C145.881 18.9157 145.161 18.1928 144.082 18.1928C143.122 18.1928 142.282 19.0361 142.282 20C142.282 20.9639 143.122 21.8072 144.082 21.8072Z" fill="#054F9D"/>
<path d="M136.645 15.4217C136.645 16.1446 136.045 16.8675 135.205 16.8675C134.366 16.8675 133.766 16.2651 133.766 15.4217C133.766 14.6988 134.366 13.9759 135.205 13.9759C136.045 13.9759 136.645 14.5783 136.645 15.4217Z" fill="#054F9D"/>
<path d="M130.407 15.4217C131.127 15.4217 131.727 14.8193 131.727 14.0964C131.727 13.3735 131.127 12.8916 130.407 12.7711C129.688 12.7711 129.088 13.3735 129.088 14.0964C129.088 14.8193 129.688 15.4217 130.407 15.4217Z" fill="#054F9D"/>
<path d="M136.525 20C136.525 20.7229 135.925 21.4458 135.085 21.4458C134.246 21.4458 133.646 20.8434 133.646 20C133.646 19.2771 134.246 18.5542 135.085 18.5542C135.925 18.5542 136.525 19.1566 136.525 20Z" fill="#054F9D"/>
<path d="M139.763 19.2771C140.603 19.2771 141.323 18.5542 141.323 17.7109C141.323 16.8675 140.603 16.1446 139.763 16.1446C138.924 16.1446 138.204 16.8675 138.204 17.7109C138.204 18.5542 138.924 19.2771 139.763 19.2771Z" fill="#054F9D"/>
<path d="M142.163 12.8916C142.163 13.8554 141.323 14.6988 140.363 14.6988C139.404 14.6988 138.564 13.8554 138.564 12.8916C138.564 11.9277 139.404 11.0843 140.363 11.0843C141.323 11.0843 142.163 11.9277 142.163 12.8916Z" fill="#054F9D"/>
<path d="M183.665 9.39761C182.586 9.39761 181.626 8.43374 181.626 7.3494C181.626 6.26506 182.466 5.30119 183.665 5.30119C184.745 5.30119 185.704 6.26506 185.704 7.3494C185.704 8.43374 184.745 9.39761 183.665 9.39761Z" fill="#054F9D"/>
<path d="M188.103 10.3615C188.103 11.3253 188.823 12.0482 189.783 12.0482C190.742 12.0482 191.462 11.3253 191.462 10.3615C191.462 9.39759 190.742 8.67471 189.783 8.67471C188.823 8.67471 188.103 9.39759 188.103 10.3615Z" fill="#054F9D"/>
<path d="M165.793 9.51806C164.593 9.51806 163.634 8.55422 163.634 7.3494C163.634 6.14458 164.593 5.18074 165.793 5.18074C166.992 5.18074 167.952 6.14458 167.952 7.3494C167.952 8.55422 166.992 9.51806 165.793 9.51806Z" fill="#054F9D"/>
<path d="M173.829 20C173.829 21.2048 174.789 22.1687 175.988 22.1687C177.188 22.1687 178.148 21.2048 178.148 20C178.148 18.7952 177.188 17.8313 175.988 17.8313C174.789 17.8313 173.829 18.7952 173.829 20Z" fill="#054F9D"/>
<path d="M169.751 5.06026C168.552 5.06026 167.592 4.09638 167.592 2.89156C167.592 1.68674 168.672 0.722901 169.751 0.722901C170.951 0.722901 171.91 1.68674 171.91 2.89156C171.91 4.09638 170.951 5.06026 169.751 5.06026Z" fill="#054F9D"/>
<path d="M174.549 4.69879C174.549 5.90361 175.509 6.86748 176.708 6.86748C177.908 6.86748 178.867 5.90361 178.867 4.69879C178.867 3.49397 177.908 2.53013 176.708 2.53013C175.509 2.65061 174.549 3.61445 174.549 4.69879Z" fill="#054F9D"/>
<path d="M172.03 11.2048C170.831 11.2048 169.871 10.241 169.871 9.03614C169.871 7.83132 170.831 6.86748 172.03 6.86748C173.23 6.86748 174.189 7.83132 174.189 9.03614C174.189 10.241 173.23 11.2048 172.03 11.2048Z" fill="#054F9D"/>
<path d="M173.47 12.7711C172.51 13.494 172.39 14.9398 173.11 15.7831C173.829 16.747 175.269 16.8675 176.228 16.1446C177.188 15.4217 177.308 13.9759 176.588 13.1325C175.749 12.1687 174.309 12.0482 173.47 12.7711Z" fill="#054F9D"/>
<path d="M178.627 12.4097C177.548 12.4097 176.588 11.4458 176.588 10.3614C176.588 9.15663 177.548 8.31324 178.627 8.31324C179.707 8.31324 180.667 9.27711 180.667 10.3614C180.667 11.4458 179.707 12.4097 178.627 12.4097Z" fill="#054F9D"/>
<path d="M178.627 15.3012C178.627 16.3855 179.467 17.2289 180.547 17.2289C181.626 17.2289 182.466 16.3855 182.466 15.3012C182.466 14.2169 181.626 13.3735 180.547 13.3735C179.467 13.253 178.627 14.2169 178.627 15.3012Z" fill="#054F9D"/>
<path d="M181.386 21.8072C180.427 21.8072 179.587 20.9639 179.587 20C179.587 18.9157 180.427 18.1928 181.386 18.1928C182.346 18.1928 183.185 19.0361 183.185 20C183.185 20.9639 182.346 21.8072 181.386 21.8072Z" fill="#054F9D"/>
<path d="M188.823 15.4217C188.823 16.1446 189.423 16.8675 190.263 16.8675C191.102 16.8675 191.702 16.2651 191.702 15.4217C191.702 14.6988 191.102 13.9759 190.263 13.9759C189.423 13.9759 188.823 14.5783 188.823 15.4217Z" fill="#054F9D"/>
<path d="M195.181 15.4217C194.461 15.4217 193.861 14.8193 193.861 14.0964C193.861 13.3735 194.461 12.8916 195.181 12.7711C195.9 12.7711 196.5 13.3735 196.5 14.0964C196.5 14.8193 195.9 15.4217 195.181 15.4217Z" fill="#054F9D"/>
<path d="M188.943 20C188.943 20.7229 189.543 21.4458 190.383 21.4458C191.222 21.4458 191.822 20.8434 191.822 20C191.822 19.2771 191.222 18.5542 190.383 18.5542C189.543 18.5542 188.943 19.1566 188.943 20Z" fill="#054F9D"/>
<path d="M185.824 19.2771C184.985 19.2771 184.265 18.5542 184.265 17.7109C184.265 16.8675 184.865 16.1446 185.824 16.1446C186.664 16.1446 187.384 16.8675 187.384 17.7109C187.384 18.5542 186.664 19.2771 185.824 19.2771Z" fill="#054F9D"/>
<path d="M183.305 12.8916C183.305 13.8554 184.145 14.6988 185.105 14.6988C186.064 14.6988 186.904 13.8554 186.904 12.8916C186.904 11.9277 186.064 11.0843 185.105 11.0843C184.145 11.0843 183.305 11.9277 183.305 12.8916Z" fill="#054F9D"/>
<path d="M141.923 30.4819C143.002 30.4819 143.962 31.4458 143.962 32.5301C143.962 33.6144 143.002 34.5783 141.923 34.5783C140.843 34.5783 139.883 33.6144 139.883 32.5301C139.883 31.4458 140.843 30.4819 141.923 30.4819Z" fill="#054F9D"/>
<path d="M137.364 29.5181C137.364 28.5542 136.645 27.8313 135.685 27.8313C134.726 27.8313 134.006 28.5542 134.006 29.5181C134.006 30.4819 134.726 31.2048 135.685 31.2048C136.645 31.2048 137.364 30.4819 137.364 29.5181Z" fill="#054F9D"/>
<path d="M162.794 35.6626C163.993 35.6626 164.953 36.6265 164.953 37.8313C164.953 39.0361 163.993 40 162.794 40C161.594 40 160.635 39.0361 160.635 37.8313C160.635 36.6265 161.594 35.6626 162.794 35.6626Z" fill="#054F9D"/>
<path d="M157.876 36.988C157.876 35.7831 156.916 34.8193 155.717 34.8193C154.517 34.8193 153.558 35.7831 153.558 36.988C153.558 38.1928 154.517 39.1566 155.717 39.1566C156.916 39.1566 157.876 38.1928 157.876 36.988Z" fill="#054F9D"/>
<path d="M148.76 33.012C149.959 33.012 150.919 33.9759 150.919 35.1807C150.919 36.3855 149.959 37.3494 148.76 37.3494C147.56 37.3494 146.601 36.3855 146.601 35.1807C146.601 33.9759 147.56 33.012 148.76 33.012Z" fill="#054F9D"/>
<path d="M152.118 27.1084C153.078 26.3855 153.198 24.9398 152.478 24.0964C151.759 23.1325 150.319 23.0121 149.36 23.735C148.4 24.4578 148.28 25.9036 149 26.747C149.719 27.7109 151.159 27.9518 152.118 27.1084Z" fill="#054F9D"/>
<path d="M144.921 22.6506C146.001 22.6506 146.841 23.494 146.841 24.5783C146.841 25.7831 146.001 26.506 144.921 26.506C143.842 26.506 143.002 25.6626 143.002 24.5783C143.002 23.494 143.842 22.6506 144.921 22.6506Z" fill="#054F9D"/>
<path d="M131.727 25.7831C131.727 25.0602 131.127 24.4578 130.407 24.4578C129.688 24.4578 129.088 25.0602 129.088 25.7831C129.088 26.506 129.688 27.1084 130.407 27.1084C131.127 27.1084 131.727 26.506 131.727 25.7831Z" fill="#054F9D"/>
<path d="M139.763 20.7229C140.603 20.7229 141.323 21.4458 141.323 22.2891C141.323 23.1325 140.603 23.735 139.763 23.8554C138.924 23.8554 138.204 23.1325 138.204 22.2891C138.204 21.4458 138.924 20.7229 139.763 20.7229Z" fill="#054F9D"/>
<path d="M181.626 32.5301C181.626 31.4458 182.586 30.4819 183.665 30.4819C184.745 30.4819 185.704 31.4458 185.704 32.5301C185.704 33.6144 184.745 34.5783 183.665 34.5783C182.466 34.5783 181.626 33.6144 181.626 32.5301Z" fill="#054F9D"/>
<path d="M189.783 27.8313C188.823 27.8313 188.103 28.5542 188.103 29.5181C188.103 30.4819 188.823 31.2048 189.783 31.2048C190.742 31.2048 191.462 30.4819 191.462 29.5181C191.462 28.5542 190.742 27.8313 189.783 27.8313Z" fill="#054F9D"/>
<path d="M167.592 36.988C167.592 35.7831 168.552 34.8193 169.751 34.8193C170.951 34.8193 171.91 35.7831 171.91 36.988C171.91 38.1928 170.951 39.1566 169.751 39.1566C168.672 39.1566 167.592 38.1928 167.592 36.988Z" fill="#054F9D"/>
<path d="M176.708 33.012C175.509 33.012 174.549 33.9759 174.549 35.1807C174.549 36.3855 175.509 37.3494 176.708 37.3494C177.908 37.3494 178.867 36.3855 178.867 35.1807C178.867 33.9759 177.908 33.012 176.708 33.012Z" fill="#054F9D"/>
<path d="M173.47 27.1084C172.51 26.3855 172.39 24.9398 173.11 24.0964C173.829 23.1325 175.269 23.0121 176.228 23.735C177.188 24.4578 177.308 25.9036 176.588 26.747C175.749 27.7109 174.309 27.9518 173.47 27.1084Z" fill="#054F9D"/>
<path d="M180.547 22.6506C179.467 22.6506 178.627 23.494 178.627 24.5783C178.627 25.7831 179.467 26.6265 180.547 26.506C181.626 26.506 182.466 25.6626 182.466 24.5783C182.466 23.494 181.626 22.6506 180.547 22.6506Z" fill="#054F9D"/>
<path d="M193.861 25.7831C193.861 25.0602 194.461 24.4578 195.181 24.4578C195.9 24.4578 196.5 25.0602 196.5 25.7831C196.5 26.506 195.9 27.1084 195.181 27.1084C194.461 27.1084 193.861 26.506 193.861 25.7831Z" fill="#054F9D"/>
<path d="M185.824 20.7229C184.985 20.7229 184.265 21.4458 184.265 22.2891C184.265 23.1325 184.865 23.735 185.824 23.8554C186.664 23.8554 187.384 23.1325 187.384 22.2891C187.384 21.4458 186.664 20.7229 185.824 20.7229Z" fill="#054F9D"/>
<path d="M131.727 20C131.727 20.7229 131.127 21.3253 130.407 21.3253C129.688 21.3253 129.088 20.7229 129.088 20C129.088 19.2771 129.688 18.6747 130.407 18.6747C131.127 18.6747 131.727 19.2771 131.727 20Z" fill="#054F9D"/>
<path d="M195.181 21.3253C194.461 21.3253 193.861 20.7229 193.861 20C193.861 19.2771 194.461 18.6747 195.181 18.6747C195.9 18.6747 196.5 19.2771 196.5 20C196.5 20.7229 195.9 21.3253 195.181 21.3253Z" fill="#054F9D"/>
</g>
<g id="Path_3">
<path d="M82.3073 29.759C82.5472 29.6386 82.6672 29.3976 82.6672 29.1566L82.1874 27.2289C82.1874 26.8675 82.0674 26.8675 81.8275 26.8675C81.601 26.8675 81.4012 26.8943 81.1903 26.9227C80.9545 26.9544 80.7047 26.9879 80.3881 26.9879C79.6684 26.9879 78.8288 26.747 78.8288 25.4217V2.16869C78.8288 1.80725 78.7088 1.56628 78.349 1.56628H78.229L75.1103 2.16869C74.7505 2.16869 74.5106 2.40966 74.5106 2.7711V25.7831C74.5106 28.6747 76.1899 30.241 79.1886 30.241C80.8679 30.241 81.9475 30 82.3073 29.759Z" fill="#054F9D"/>
<path clip-rule="evenodd" d="M52.5597 20C52.5597 25.7831 53.6392 30.3615 61.7958 30.3615C70.0724 30.3615 71.032 25.6627 70.9121 20C70.9121 14.2169 69.9524 9.63855 61.7958 9.63855C53.6392 9.63855 52.5597 14.2169 52.5597 20ZM56.9978 20C56.9978 15.3012 57.2377 12.6506 61.7958 12.6506C66.3539 12.6506 66.5938 15.3012 66.5938 20C66.5938 24.5783 66.3539 27.2289 61.7958 27.2289C57.2377 27.2289 56.9978 24.5783 56.9978 20Z" fill="#054F9D" fill-rule="evenodd"/>
<path d="M93.5827 29.1566C93.5827 29.3976 93.4627 29.6386 93.2228 29.759C92.863 30 91.7834 30.241 90.1041 30.241C87.1053 30.241 85.4261 28.6747 85.4261 25.7831V2.7711C85.4261 2.40966 85.666 2.16869 86.0258 2.16869L89.1445 1.56628H89.2645C89.6243 1.56628 89.7442 1.80725 89.7442 2.16869V25.4217C89.7442 26.747 90.5839 26.9879 91.3036 26.9879C91.6202 26.9879 91.8699 26.9544 92.1058 26.9227C92.3167 26.8943 92.5165 26.8675 92.743 26.8675C92.9829 26.8675 93.1029 26.8675 93.1029 27.2289L93.5827 29.1566Z" fill="#054F9D"/>
<path clip-rule="evenodd" d="M94.7822 20C94.7822 25.7831 95.8617 30.3615 104.018 30.3615C112.175 30.3615 113.255 25.6627 113.135 20C113.135 14.2169 112.175 9.63855 104.018 9.63855C95.8617 9.63855 94.7822 14.2169 94.7822 20ZM99.2203 20C99.2203 15.3012 99.4602 12.6506 104.018 12.6506C108.576 12.6506 108.816 15.3012 108.816 20C108.816 24.5783 108.576 27.2289 104.018 27.2289C99.4602 27.2289 99.2203 24.5783 99.2203 20Z" fill="#054F9D" fill-rule="evenodd"/>
<path clip-rule="evenodd" d="M29.0494 29.3976C29.0494 29.759 28.8095 29.759 28.5696 29.759H24.8512C24.6113 29.759 24.2514 29.5181 24.2514 29.2771L20.7728 18.7952H11.6566L8.17805 29.2771C8.0581 29.5181 7.8182 29.6385 7.5783 29.6385H3.97979C3.61994 29.6385 3.5 29.5181 3.5 29.1566V28.9157L12.7362 2.28915C12.8561 2.04818 13.216 1.80723 13.4559 1.80723H19.0935C19.3334 1.80723 19.6933 2.04818 19.8132 2.28915L28.9295 28.9157C29.0494 29.2771 29.0494 29.3976 29.0494 29.3976ZM16.4546 5.42168H15.9748L12.7362 15.4217H19.8132L16.4546 5.42168Z" fill="#054F9D" fill-rule="evenodd"/>
<path clip-rule="evenodd" d="M33.9674 10.8434C36.1265 10.1205 39.0053 9.63855 41.5242 9.63855C48.6013 9.63855 49.5609 13.8554 49.5609 20C49.5609 26.506 48.0016 30.3615 41.0444 30.3615C39.1252 30.3615 37.326 30.1205 36.0065 29.759V36.506C36.0065 36.988 35.7666 37.1084 35.4068 37.2289L32.408 37.8313C31.9282 37.8313 31.6883 37.5903 31.6883 37.2289V13.8554C31.6883 12.0482 32.1681 11.4458 33.9674 10.8434ZM36.0065 26.747C36.3664 26.8675 38.0457 27.2289 40.2048 27.2289C44.0432 27.2289 45.2427 25.7831 45.2427 20C45.2427 13.494 43.6833 12.7711 40.5646 12.7711C38.8853 12.7711 36.4863 13.3735 36.0065 13.494V26.747Z" fill="#054F9D" fill-rule="evenodd"/>
</g>
</g>
</svg>