                <svg xmlns="http://www.w3.org/2000/svg" viewBox="0 0 208.002 37.784">
                    <linearGradient id="SVGID_1_" gradientUnits="userSpaceOnUse" x1="-951.871" y1="316.111" x2="-951.164" y2="315.404">
                        <stop offset="0" stop-color="#1da238"/>
                        <stop offset=".983" stop-color="#24391d"/>
                    </linearGradient>
                    <g id="Stammhaus">
                        <path fill="#000032" d="M35.872 6.296l1.86-.025V0H23.836v6.271l1.859.025c.006 0 .613.004 1.009.402.233.235.352.565.35.982l-.003 7.138H10.682a4807.21 4807.21 0 0 0-.004-7.138c-.001-.416.117-.746.351-.982.396-.397 1.003-.402 1.009-.402l1.859-.025V0H0v6.271l1.86.025c.006 0 .612.004 1.008.402.234.236.353.566.351.982-.004.573-.008 21.184 0 22.425.002.416-.116.747-.351.981-.395.397-1.002.402-1.008.402L0 31.513v6.271h13.896v-6.271l-1.859-.024c-.006 0-.613-.005-1.009-.402-.233-.234-.351-.565-.351-.981.003-.474.005-3.762.005-7.682H27.05c0 3.92.001 7.208.004 7.682.002.416-.116.747-.35.981-.396.397-1.003.402-1.009.402l-1.859.024v6.271h13.896v-6.271l-1.86-.024c-.006 0-.612-.005-1.008-.402-.234-.234-.353-.565-.351-.981.008-1.241.004-21.856 0-22.425-.002-.416.116-.746.351-.982.396-.398 1.002-.403 1.008-.403zM137.455 6.296l1.859-.025V0h-10.678l-11.873 17.127L104.891 0H94.213v6.271l1.859.025c.006 0 .613.004 1.009.402.233.235.352.565.351.982-.004.573-.008 21.184 0 22.425.001.416-.117.747-.351.981-.396.397-1.003.402-1.009.402l-1.859.024v6.271h13.896v-6.271l-1.86-.024c-.006 0-.612-.005-1.008-.402-.234-.234-.353-.565-.351-.981.005-.838.005-10.502.003-16.87l.007.008 11.324 16.371c.01.014.195.345.539.345.343 0 .529-.331.539-.345l11.324-16.371.007-.008c-.002 6.368-.002 16.032.003 16.87.002.416-.116.747-.351.981-.395.397-1.002.402-1.008.402l-1.86.024v6.271h13.896v-6.271l-1.859-.024c-.006 0-.613-.005-1.009-.402-.233-.234-.353-.565-.351-.981.008-1.241.004-21.852 0-22.425-.002-.416.117-.746.351-.982.397-.397 1.004-.402 1.01-.402zM44.993 7.68c.002-.416-.116-.746-.351-.982-.396-.397-1.002-.402-1.008-.402l-1.86-.025V0h13.897v6.271l-1.859.025c-.006 0-.613.004-1.009.402-.233.235-.351.565-.35.982.003.568.007 21.184 0 22.425-.002.416.116.747.35.981.396.397 1.003.402 1.009.402l1.859.024v6.271H41.774v-6.271l1.86-.024c.006 0 .612-.005 1.008-.402.234-.234.353-.565.351-.981-.008-1.242-.004-21.852 0-22.425zM173.242 10.088V0h-29.885v6.271l1.859.025c.006 0 .613.004 1.009.402.233.235.352.565.351.982-.004.573-.008 21.184 0 22.425.001.416-.117.747-.351.981-.395.397-1.003.402-1.009.402l-1.859.024v6.271h29.885V27.7h-7.464v2.404c.002.416-.116.747-.35.981-.396.397-1.003.402-1.009.402h-9.026c-.006 0-.612-.005-1.008-.402-.234-.234-.353-.565-.351-.981.003-.474.004-3.762.004-7.682h7.998v-7.605h-7.998a7182.2 7182.2 0 0 0-.004-7.138c-.002-.416.116-.746.351-.982.395-.397 1.002-.402 1.008-.402h9.026c.006 0 .613.004 1.009.402.233.235.352.565.35.982v2.408h7.464zM88.219 31.488c-1.763 0-2.66-1.728-2.66-1.728l-3.953-6.236c1.353-.316 8.766-2.468 8.766-11.588C90.371 3.136 84.064 0 78.163 0H59.714v6.271l1.859.025c.006 0 .613.004 1.009.402.234.235.353.565.351.982-.004.573-.008 21.184 0 22.425.002.416-.116.747-.351.981-.396.397-1.003.402-1.009.402l-1.859.024v6.271H73.61v-6.271l-1.86-.024c-.006 0-.612-.005-1.008-.402-.234-.234-.353-.565-.351-.981.002-.398.004-5.998.004-5.998h2.852l7.574 11.951s.898 1.727 2.661 1.727h6.948v-6.274l-2.211-.023zM77.628 16.633l-7.232-.003s-.002-8.702-.004-8.95c-.002-.416.116-.746.351-.982.396-.397 1.002-.402 1.008-.402l1.86-.025v.002h4.018c1.811 0 4.849.681 4.849 5.239-.001 4.456-3.039 5.121-4.85 5.121zM205.79 31.488c-1.763 0-2.661-1.728-2.661-1.728l-3.952-6.236c1.352-.316 8.766-2.468 8.766-11.588C207.942 3.136 201.636 0 195.734 0h-18.449v6.271l1.859.025c.006 0 .613.004 1.009.402.233.235.352.565.351.982-.004.573-.008 21.184 0 22.425.001.416-.117.747-.351.981-.395.397-1.003.402-1.009.402l-1.859.024v6.271h13.896v-6.271l-1.86-.024c-.006 0-.612-.005-1.008-.402-.234-.234-.353-.565-.351-.981.002-.398.004-5.998.004-5.998h2.851l7.575 11.951s.898 1.727 2.661 1.727h6.948v-6.274l-2.211-.023zm-10.591-14.855l-7.232-.003s-.002-8.702-.004-8.95c-.002-.416.116-.746.351-.982.396-.397 1.002-.402 1.008-.402l1.86-.025v.002h4.018c1.811 0 4.849.681 4.849 5.239-.001 4.456-3.039 5.121-4.85 5.121z"/>
                    </g>
                </svg>
