<svg xmlns="http://www.w3.org/2000/svg" width="199" height="22" fill="none" viewBox="0 0 199 22"><g id="logo" clip-path="url(#clip0_8421_56685)"><path id="logo_2" fill="#000" d="M100.064 7.253c.673-.455 1.009-.93 1.009-1.444 0-.395-.138-.732-.376-.969-.257-.237-.593-.376-1.028-.376q-.653 0-1.01.356c-.237.238-.355.574-.355.99 0 .276.099.573.316.89.119.217.376.533.772.969l.02.02c.217-.14.435-.278.652-.436m1.84 9.02-3.56-4.154c-.594.435-1.03.81-1.266 1.167-.297.435-.436.91-.436 1.463 0 .475.12.89.356 1.266.238.376.554.673.97.87.415.218.87.317 1.364.317s.95-.06 1.345-.217a4.2 4.2 0 0 0 1.227-.712m5.004.098 3.521 4.075h-4.945l-1.227-1.444c-.435.336-.791.593-1.068.752a7.2 7.2 0 0 1-1.562.672 8.2 8.2 0 0 1-2.255.297c-2.097 0-3.699-.495-4.806-1.523q-1.662-1.514-1.662-4.391c0-1.108.356-2.156 1.108-3.125.514-.673 1.266-1.345 2.215-1.978-.514-.594-.91-1.147-1.167-1.622a4.73 4.73 0 0 1-.633-2.354c0-.91.198-1.72.633-2.413q.652-1.038 1.84-1.602c.79-.376 1.72-.574 2.788-.574.989 0 1.879.198 2.651.594.751.395 1.345.93 1.78 1.622.415.712.633 1.523.633 2.433 0 .692-.178 1.305-.495 1.859-.336.554-.85 1.088-1.542 1.582l-1.187.87 2.907 3.402c.475-.712.732-1.72.772-3.006l.02-.178h3.659v.198q-.118 1.958-.594 3.382a7.4 7.4 0 0 1-1.384 2.472M23.36 1.596h-5.973l-3.58 13.826L10.82 1.596H4.867L.673 20.268h4.154l2.927-13.53 3.402 13.53h5.44l3.58-13.53 2.314 13.53h4.589zm15.448 15.646q1.395 0 2.551-.594c.87-.455 1.543-1.127 2.038-2.017.534-.99.81-2.235.81-3.699s-.276-2.69-.81-3.699a5.13 5.13 0 0 0-2.038-2.017q-1.157-.594-2.551-.593-1.424 0-2.552.593a4.96 4.96 0 0 0-2.017 2.017c-.554 1.01-.811 2.235-.811 3.7 0 1.463.257 2.709.81 3.698a4.73 4.73 0 0 0 2.018 2.017q1.128.594 2.552.594m.02-16.2c1.958 0 3.718.436 5.28 1.266a9.27 9.27 0 0 1 3.58 3.462q1.306 2.285 1.306 5.162c0 1.919-.435 3.64-1.305 5.143a9.04 9.04 0 0 1-3.58 3.48c-1.563.851-3.323 1.267-5.301 1.267s-3.739-.416-5.281-1.266c-1.543-.83-2.73-1.978-3.58-3.481-.87-1.503-1.306-3.224-1.306-5.143q0-2.878 1.306-5.162a9 9 0 0 1 3.58-3.462c1.542-.83 3.323-1.266 5.3-1.266m20.155 8.703c.969 0 1.72-.197 2.255-.633.514-.415.79-1.028.79-1.82 0-.81-.276-1.423-.79-1.839-.515-.395-1.306-.613-2.374-.613h-2.215l-.119 4.905zm4.232 2.077-.217.08 4.885 8.366h-5.182l-3.718-7.279h-2.235l-.12 7.279h-4.667l.158-18.672h7.358q3.5 0 5.281 1.306 1.78 1.305 1.78 3.857c0 1.325-.296 2.413-.85 3.263-.554.87-1.385 1.464-2.473 1.8m12.402-2.61.08-4.036h8.109v-3.58H71.048l-.158 18.672h12.916v-3.58h-8.268l.06-4.055h8.208V9.211zm62.938-7.616h-5.954l-3.58 13.826-2.987-13.826h-5.973l-4.173 18.672h4.153l2.928-13.53 3.402 13.53h5.439l3.56-13.53 2.314 13.53h4.609zm15.447 15.646c.95 0 1.8-.198 2.572-.594.87-.455 1.542-1.127 2.037-2.017.534-.99.811-2.235.811-3.699s-.277-2.69-.811-3.699a5.13 5.13 0 0 0-2.037-2.017c-.772-.396-1.622-.593-2.572-.593q-1.424 0-2.551.593a4.95 4.95 0 0 0-2.018 2.017c-.554 1.01-.811 2.235-.811 3.7 0 1.463.257 2.709.811 3.698a4.73 4.73 0 0 0 2.018 2.017q1.127.594 2.551.594m.04-16.2c1.958 0 3.718.436 5.281 1.266a9.1 9.1 0 0 1 3.56 3.462q1.306 2.285 1.306 5.162c0 1.919-.435 3.64-1.306 5.143-.85 1.503-2.037 2.65-3.56 3.48-1.563.851-3.323 1.267-5.301 1.267s-3.738-.416-5.281-1.266c-1.543-.83-2.73-1.978-3.58-3.481-.87-1.503-1.305-3.224-1.305-5.143q0-2.878 1.305-5.162a9 9 0 0 1 3.58-3.462c1.543-.83 3.323-1.266 5.301-1.266m20.155 8.703c.969 0 1.721-.197 2.255-.633.514-.415.791-1.028.791-1.82 0-.81-.277-1.423-.791-1.839-.514-.395-1.306-.613-2.374-.613h-2.215l-.119 4.905zm4.233 2.077-.218.08 4.886 8.366h-5.183l-3.738-7.279h-2.235l-.099 7.279h-4.668l.159-18.672h7.357q3.501 0 5.282 1.306 1.78 1.305 1.78 3.857c0 1.325-.297 2.413-.851 3.263-.554.87-1.384 1.464-2.472 1.8m12.401-2.61.06-4.036H199v-3.58h-12.738l-.178 18.672H199v-3.58h-8.248l.06-4.055H199V9.211z"></path></g><defs><clipPath id="clip0_8421_56685"><path fill="#fff" d="M0 .508h199v20.983H0z"></path></clipPath></defs></svg>
