<svg xmlns="http://www.w3.org/2000/svg" viewBox="0 0 588.19 283.47"><path style="fill:#ffdc00" d="M304.72 0v283.47h283.47V0z"/><path d="m358.38 143.17-30.36-45.51c-1.57-2.34-2.03-3.8-2.03-6.13 0-4.45 3.37-7.86 8.47-7.86h50.76c-15.87 12.5-27.76 34.43-26.84 59.5m-23-51.83c-1.15 0-1.66.93-1.03 1.9l19.33 29.67c1.55-12.83 7.45-24.09 14-31.56h-32.3Zm223.08-7.67c5.1 0 8.47 3.41 8.47 7.86 0 2.34-.65 3.95-2.8 6.75-69.04 89.75-95 104.93-130.96 104.54-35.27-.38-61.3-25.8-61.68-60.11-.38-35.31 25.72-62.07 61.07-62.07 17.78 0 31.98 6.89 41.35 16.77l-21.61 32.64c-4.46-5.11-10.81-9.73-19.54-9.73-12.19 0-21.08 8.63-21.08 21.55s9.39 20.78 21.51 20.78c11.39 0 18.86-7.05 29.86-23.96l35.81-55.01h59.61Zm-.92 7.67h-54.59l-34.04 52.25c-10.77 16.52-20.05 26.72-35.73 26.72-16.45 0-29.17-11.42-29.17-28.48s12.34-29.14 28.45-29.17c7.03 0 14.09 2.55 18.34 5.97l13.01-20.05c-7.93-6.31-18.26-10.26-31.12-10.26-31.17 0-53.9 23.16-53.52 54.36.38 30.09 22.96 52.1 54.02 52.48 31.98.38 56.17-11.98 125.25-102.02.65-.91.27-1.8-.89-1.8Z"/><path style="fill:#ffdc00" d="M0 0v283.47h283.46V0z"/><path d="M44.13 151.62v18.52h-9.57V152.1l-17.55-31.5h10.48l11.86 22.2 11.72-22.2h10.34zm29.88-22.48v11.37h19.78v8.47H74.01v12.63h23.73v8.53H64.51V120.6h33.23v8.54zm31.07-15.45h9.5v56.45h-9.5zm19.2-8.91h9.5v65.36h-9.5zm19.21-8.91h9.5v74.27h-9.5zm16.92 52.14v-4.3c0-16.09 8.11-24.21 21.5-24.21s21.23 7.98 21.23 23.45v4.16c0 16.09-8.11 24.14-21.58 24.14s-21.16-7.84-21.16-23.24Zm33.22-.9v-3.47c0-10.34-3.19-15.89-11.72-15.89s-12 5.76-12 15.89v3.4c0 10.48 3.19 15.89 11.79 15.89s11.93-5.68 11.93-15.82m72.83-26.51-12 49.54h-9.02l-9.23-31.92-9.3 31.92h-9.02l-11.93-49.54h9.5l7.22 36.29h.63l9.15-36.29h7.5l9.08 36.29h.7l7.14-36.29z"/></svg>